<svg width="130" height="24" viewBox="0 0 130 24" fill="none" xmlns="http://www.w3.org/2000/svg">
<g clip-path="url(#clip0)">
<path d="M5.18044 20.7646C3.82317 20.6519 2.71419 20.4588 1.87003 20.1529C1.02587 19.8471 0.396895 19.6056 -0.0169067 19.4125L1.17484 16.2897C1.82037 16.5956 2.59832 16.8853 3.50868 17.1268C4.4025 17.3843 5.36252 17.5131 6.37219 17.5131C7.49773 17.5131 8.27568 17.3682 8.70603 17.0624C9.11984 16.7565 9.33501 16.338 9.33501 15.8068C9.33501 15.4688 9.25225 15.163 9.08673 14.9215C8.92121 14.6801 8.67293 14.4547 8.35844 14.2616C8.04395 14.0684 7.6467 13.8753 7.16669 13.6821C6.68668 13.4889 6.12391 13.2958 5.49493 13.0704C4.88251 12.8612 4.28663 12.6197 3.69076 12.3461C3.11143 12.0885 2.58177 11.7666 2.10176 11.3803C1.62175 10.994 1.24105 10.5433 0.959666 9.97988C0.67828 9.4326 0.529312 8.75654 0.529312 7.9839C0.529312 7.38833 0.612072 6.80885 0.794145 6.26157C0.976218 5.71429 1.24105 5.21529 1.62175 4.76459C1.98589 4.31388 2.48246 3.92757 3.07833 3.60563C3.67421 3.2837 4.38594 3.05835 5.197 2.91348V0H8.70603V2.8169C9.66606 2.91348 10.5102 3.04225 11.2054 3.21932C11.9006 3.39638 12.4634 3.57344 12.8606 3.7666L11.9999 7.01811C11.3875 6.76056 10.6757 6.55131 9.86468 6.37424C9.05363 6.19718 8.20947 6.1006 7.31566 6.1006C6.42185 6.1006 5.77632 6.24547 5.39562 6.53521C4.99837 6.82495 4.8163 7.21127 4.8163 7.67807C4.8163 7.96781 4.88251 8.20926 4.99837 8.41851C5.11424 8.62777 5.31286 8.80483 5.57769 8.98189C5.84253 9.14286 6.15702 9.30382 6.53771 9.46479C6.91841 9.62575 7.38187 9.78672 7.91154 9.96378C8.72259 10.2535 9.48398 10.5755 10.1792 10.9135C10.8744 11.2515 11.4868 11.6539 11.9833 12.0885C12.4965 12.5392 12.8937 13.0543 13.1751 13.6499C13.4565 14.2455 13.6054 14.9376 13.6054 15.7425C13.6054 16.2897 13.5227 16.8209 13.3572 17.3521C13.1916 17.8833 12.9103 18.3823 12.513 18.833C12.1158 19.2837 11.6192 19.67 10.9902 19.992C10.3612 20.3139 9.59985 20.5553 8.68948 20.7002V24H5.18044V20.7646Z" fill="#C965A7"/>
<path d="M28.4199 20.5714C28.0558 20.6841 27.6254 20.7807 27.1454 20.8773C26.6654 20.9738 26.1523 21.0704 25.6226 21.1348C25.0929 21.1992 24.5467 21.2636 24.0005 21.3119C23.4543 21.3602 22.9246 21.3763 22.428 21.3763C21.2197 21.3763 20.1439 21.1992 19.2004 20.8612C18.2569 20.5231 17.4459 20.0241 16.8003 19.3803C16.1548 18.7364 15.6583 17.9638 15.3107 17.0463C14.9631 16.1288 14.7975 15.1147 14.7975 13.9718C14.7975 12.8129 14.9465 11.7666 15.2445 10.833C15.5424 9.8994 15.9727 9.11066 16.519 8.4668C17.0817 7.82294 17.7604 7.32394 18.5714 6.96982C19.3825 6.63179 20.3094 6.45473 21.3522 6.45473C21.9315 6.45473 22.4446 6.50302 22.8915 6.61569C23.355 6.72837 23.8019 6.87324 24.2653 7.08249V0.643863L28.4199 0V20.5714ZM19.0349 13.7948C19.0349 15.0342 19.3163 16.0483 19.8956 16.8048C20.4749 17.5614 21.3191 17.9477 22.4612 17.9477C22.8253 17.9477 23.1729 17.9316 23.4874 17.8994C23.8019 17.8672 24.0667 17.835 24.2653 17.8028V10.4628C24.0005 10.3018 23.6695 10.1569 23.2557 10.0604C22.8419 9.94769 22.4115 9.8994 21.9811 9.8994C20.0114 9.8994 19.0349 11.2032 19.0349 13.7948Z" fill="#353434"/>
<path d="M30.4724 14.0201C30.4724 12.7485 30.671 11.6539 31.0682 10.7042C31.4655 9.75454 31.9951 8.96581 32.6407 8.33804C33.2862 7.71027 34.031 7.22738 34.8918 6.90544C35.7359 6.58351 36.6132 6.42255 37.4904 6.42255C39.576 6.42255 41.2146 7.03422 42.4229 8.27365C43.6312 9.51309 44.2271 11.332 44.2271 13.7304C44.2271 13.9718 44.2106 14.2294 44.194 14.503C44.1775 14.7767 44.1609 15.0342 44.1444 15.2435H34.7262C34.8255 16.0805 35.2228 16.7405 35.918 17.2234C36.6297 17.7063 37.5732 17.9477 38.7649 17.9477C39.5263 17.9477 40.2712 17.8833 41.016 17.7384C41.7443 17.6097 42.3567 17.4326 42.8202 17.2395L43.383 20.5232C43.1678 20.6358 42.8699 20.7324 42.4892 20.8451C42.125 20.9578 41.7112 21.0543 41.2478 21.1348C40.7843 21.2153 40.3043 21.2797 39.7912 21.3441C39.2781 21.3924 38.7484 21.4246 38.2353 21.4246C36.9111 21.4246 35.769 21.2314 34.7924 20.8612C33.8159 20.4749 33.0048 19.9598 32.3593 19.2998C31.7138 18.6399 31.2503 17.8511 30.9358 16.9497C30.6213 16.0483 30.4724 15.0664 30.4724 14.0201ZM40.2215 12.4749C40.205 12.1368 40.1388 11.7988 40.0394 11.4769C39.9401 11.1549 39.7746 10.8652 39.5594 10.6077C39.3443 10.3501 39.0794 10.1409 38.7484 9.97989C38.4173 9.81893 38.0201 9.73844 37.5401 9.73844C37.0766 9.73844 36.6794 9.81893 36.3483 9.96379C36.0173 10.1248 35.7359 10.3179 35.5042 10.5755C35.289 10.833 35.1069 11.1227 34.9911 11.4608C34.8752 11.7988 34.7759 12.1368 34.7262 12.4749H40.2215Z" fill="#353434"/>
<path d="M50.6328 21.0382C49.6893 19.2354 48.7128 17.1107 47.7362 14.6962C46.7596 12.2817 45.8327 9.64183 44.9554 6.77664H49.3583C49.5404 7.48489 49.7721 8.24143 50.0204 9.06236C50.2687 9.88328 50.5335 10.7203 50.7983 11.5573C51.0632 12.3944 51.3445 13.2153 51.6094 14.004C51.8742 14.7927 52.139 15.5171 52.4039 16.177C52.6522 15.5332 52.9004 14.8088 53.1818 14.004C53.4632 13.2153 53.7446 12.3944 54.0094 11.5573C54.2743 10.7203 54.5391 9.88328 54.7874 9.06236C55.0357 8.24143 55.2508 7.4688 55.4495 6.77664H59.753C58.8757 9.62574 57.9488 12.2656 56.9723 14.6962C55.9957 17.1107 55.0357 19.2354 54.0756 21.0382H50.6328Z" fill="#353434"/>
<path d="M66.8704 2.02817C69.7504 2.02817 71.9684 2.52716 73.5078 3.50905C75.0471 4.49094 75.8251 6.1006 75.8251 8.35413C75.8251 10.6076 75.0471 12.2495 73.4912 13.2475C71.9353 14.2455 69.7008 14.7445 66.8042 14.7445H65.4303V21.0382H61.0771V2.52716C62.0206 2.3501 63.0303 2.22133 64.0896 2.14084C65.149 2.07646 66.0759 2.02817 66.8704 2.02817ZM67.1518 5.6338C66.8373 5.6338 66.5228 5.6499 66.2248 5.666C65.9104 5.68209 65.6455 5.69819 65.4303 5.71429V11.1388H66.8042C68.3104 11.1388 69.4359 10.9457 70.1973 10.5433C70.9587 10.1408 71.3394 9.4004 71.3394 8.32193C71.3394 7.79074 71.2401 7.35614 71.0415 7.01811C70.8429 6.68008 70.5615 6.40644 70.1973 6.19718C69.8332 5.98793 69.3863 5.84306 68.8732 5.76257C68.3601 5.68209 67.7807 5.6338 67.1518 5.6338Z" fill="#353434"/>
<path d="M83.439 21.3119C82.2307 21.2958 81.2541 21.167 80.4927 20.9256C79.7313 20.6841 79.152 20.3622 78.7051 19.9437C78.2748 19.5252 77.9768 19.0101 77.8113 18.3984C77.6458 17.7867 77.5796 17.1107 77.5796 16.3541V0.643863L81.7341 0V15.5332C81.7341 15.8873 81.7672 16.2254 81.8169 16.5151C81.8666 16.8048 81.9824 17.0463 82.1314 17.2394C82.2969 17.4326 82.5121 17.5936 82.81 17.7223C83.108 17.8511 83.5052 17.9316 84.0018 17.9638L83.439 21.3119Z" fill="#353434"/>
<path d="M84.879 14.0201C84.879 12.7485 85.0777 11.6539 85.4749 10.7042C85.8722 9.75454 86.4018 8.96581 87.0474 8.33804C87.6929 7.71027 88.4377 7.22738 89.2984 6.90544C90.1426 6.58351 91.0199 6.42255 91.8971 6.42255C93.9827 6.42255 95.6213 7.03422 96.8296 8.27365C98.0379 9.51309 98.6338 11.332 98.6338 13.7304C98.6338 13.9718 98.6173 14.2294 98.6007 14.503C98.5841 14.7767 98.5676 15.0342 98.551 15.2435H89.1329C89.2322 16.0805 89.6295 16.7405 90.3247 17.2234C91.0364 17.7063 91.9799 17.9477 93.1716 17.9477C93.933 17.9477 94.6779 17.8833 95.4227 17.7384C96.151 17.6097 96.7634 17.4326 97.2269 17.2395L97.7896 20.5232C97.5745 20.6358 97.2765 20.7324 96.8958 20.8451C96.5317 20.9578 96.1179 21.0543 95.6544 21.1348C95.191 21.2153 94.711 21.2797 94.1978 21.3441C93.6847 21.3924 93.1551 21.4246 92.642 21.4246C91.3178 21.4246 90.1757 21.2314 89.1991 20.8612C88.2226 20.4749 87.4115 19.9598 86.766 19.2998C86.1204 18.6399 85.657 17.8511 85.3425 16.9497C85.028 16.0483 84.879 15.0664 84.879 14.0201ZM94.6282 12.4749C94.6116 12.1368 94.5454 11.7988 94.4461 11.4769C94.3468 11.1549 94.1813 10.8652 93.9661 10.6077C93.7509 10.3501 93.4861 10.1409 93.1551 9.97989C92.824 9.81893 92.4268 9.73844 91.9468 9.73844C91.4833 9.73844 91.0861 9.81893 90.755 9.96379C90.424 10.1248 90.1426 10.3179 89.9109 10.5755C89.6957 10.833 89.5136 11.1227 89.3977 11.4608C89.2819 11.7988 89.1826 12.1368 89.1329 12.4749H94.6282Z" fill="#353434"/>
<path d="M100.868 7.25955C101.58 7.0664 102.49 6.87324 103.599 6.69617C104.708 6.51911 105.884 6.43863 107.108 6.43863C108.35 6.43863 109.393 6.5996 110.22 6.90543C111.048 7.22736 111.71 7.66197 112.19 8.24145C112.67 8.82092 113.018 9.51308 113.216 10.3018C113.415 11.0905 113.531 11.9759 113.531 12.9577V21.006H109.376V13.4406C109.376 12.1368 109.194 11.2193 108.846 10.672C108.499 10.1247 107.837 9.8511 106.86 9.8511C106.562 9.8511 106.248 9.8672 105.917 9.89939C105.586 9.93159 105.288 9.96378 105.023 9.99597V21.006H100.868V7.25955Z" fill="#353434"/>
<path d="M130 13.8752C130 15.002 129.834 16.0161 129.503 16.9497C129.172 17.8833 128.692 18.672 128.047 19.332C127.418 19.9919 126.656 20.507 125.779 20.8611C124.902 21.2153 123.909 21.4084 122.816 21.4084C121.74 21.4084 120.764 21.2314 119.87 20.8611C118.993 20.507 118.231 19.9919 117.602 19.332C116.973 18.672 116.477 17.8833 116.129 16.9497C115.782 16.0161 115.6 14.9859 115.6 13.8752C115.6 12.7485 115.782 11.7344 116.146 10.8169C116.51 9.89937 117.007 9.11064 117.652 8.45068C118.298 7.79072 119.059 7.29173 119.936 6.9376C120.814 6.58348 121.774 6.39032 122.816 6.39032C123.876 6.39032 124.852 6.56738 125.73 6.9376C126.607 7.29173 127.368 7.80682 127.997 8.45068C128.626 9.09454 129.123 9.88328 129.47 10.8169C129.834 11.7344 130 12.7646 130 13.8752ZM125.763 13.8752C125.763 12.6358 125.514 11.6539 125.001 10.9296C124.488 10.2213 123.76 9.85108 122.816 9.85108C121.873 9.85108 121.128 10.2052 120.615 10.9296C120.102 11.6378 119.837 12.6197 119.837 13.8752C119.837 15.1308 120.102 16.1127 120.615 16.837C121.128 17.5613 121.873 17.9316 122.816 17.9316C123.76 17.9316 124.488 17.5613 125.001 16.837C125.514 16.1127 125.763 15.1308 125.763 13.8752Z" fill="#353434"/>
</g>
<defs>
<clipPath id="clip0">
<rect width="130" height="24" fill="white"/>
</clipPath>
</defs>
</svg>
